<svg xmlns="http://www.w3.org/2000/svg" version="1.1" xmlns:xlink="http://www.w3.org/1999/xlink" width="512" height="512" x="0" y="0" viewBox="0 0 64 64" style="enable-background:new 0 0 512 512" xml:space="preserve" class=""><g><path d="M29.396 45.717a6.139 6.139 0 0 0-6.132 6.132c.288 8.116 11.977 8.114 12.264 0a6.139 6.139 0 0 0-6.132-6.132zm0 9.316a3.185 3.185 0 0 1 0-6.369 3.185 3.185 0 0 1 0 6.37zM45.417 45.717a6.139 6.139 0 0 0-6.132 6.132c.288 8.116 11.978 8.113 12.264 0a6.139 6.139 0 0 0-6.132-6.132zm0 9.316a3.185 3.185 0 0 1 0-6.369 3.185 3.185 0 0 1 0 6.37zM58.864 17.826a5.156 5.156 0 0 0-4.046-1.944H17.48l-.886-4.148c-.686-3.285-4.192-5.669-8.335-5.669H5.474a1.474 1.474 0 1 0 0 2.947h2.784c2.71 0 5.054 1.43 5.452 3.331l1.14 5.337 5.172 22.942a5.15 5.15 0 0 0 5.053 4.041h25.59a5.15 5.15 0 0 0 5.053-4.04L59.872 22.2a5.155 5.155 0 0 0-1.008-4.375zm-1.867 3.727-4.153 18.422a2.22 2.22 0 0 1-2.178 1.74H25.075a2.22 2.22 0 0 1-2.178-1.74l-4.766-21.146h36.687a2.246 2.246 0 0 1 2.179 2.724z" fill="#000000" opacity="1" data-original="#000000" class=""></path></g></svg>